<svg width="274" height="52" viewBox="0 0 274 52" fill="none" xmlns="http://www.w3.org/2000/svg">
<line x1="-6.08603e-05" y1="2" x2="260" y2="2.00002" stroke="#0561F5" stroke-width="4"/>
<path d="M257.586 51.4142C258.367 52.1953 259.633 52.1953 260.414 51.4142L273.142 38.6863C273.923 37.9052 273.923 36.6389 273.142 35.8579C272.361 35.0768 271.095 35.0768 270.314 35.8579L259 47.1716L247.686 35.8579C246.905 35.0768 245.639 35.0768 244.858 35.8579C244.077 36.6389 244.077 37.9052 244.858 38.6863L257.586 51.4142ZM257 -8.74228e-08L257 50L261 50L261 8.74228e-08L257 -8.74228e-08Z" fill="#0561F5"/>
</svg>
