<svg width="88" height="32" viewBox="0 0 88 32" fill="none" xmlns="http://www.w3.org/2000/svg">
<path d="M16 18.5C24.711 18.5 33.4078 18.6943 42.1111 19.1111C51.717 19.5712 61.7079 21.0495 71.3333 20.3889C72.0729 20.3381 74.4634 19.8453 72.4444 19.1111C68.2799 17.5967 62.5376 18.5 58.2222 18.5C49.2523 18.5 40.2948 18.465 31.3333 18.8889C29.0751 18.9957 28.8273 18.4553 30.9444 17.5C34.8386 15.7429 39.4902 14.9464 43.6667 14.1111C44.9371 13.857 48.2605 14.1524 48.8889 12.7778C49.4811 11.4823 49.006 8.81382 48.8889 7.5C48.6584 4.91335 48.5065 2 45.5 2C43.7843 2 41.8073 3.10496 40.1667 3.72222C35.5866 5.4454 31.1118 7.64569 26.8889 10.1111C24.3029 11.6209 21.8451 13.2956 19.4444 15.0833C18.406 15.8567 9.17612 21.4458 12.5278 22.6944C14.9271 23.5883 17.5161 23.8951 20.0556 24.2222C27.5898 25.1929 45.5298 26.3856 52.6111 26.7222C61.5938 27.1492 71.9168 28.1458 80.8056 25.6667C85.5752 24.3364 86.756 22.5193 85.3889 17.8889C84.4153 14.5914 82.6983 11.4731 80.2222 9.05556C78.156 7.03813 77.2096 7.93188 74.8889 9.33333C67.0119 14.0902 59.3406 19.2036 51.6667 24.2778C50.7224 24.9021 45.9353 28.8197 43.75 29.2222C39.8987 29.9317 27.938 30.5498 27.3056 25.1111C26.8188 20.9252 30.1912 17.5241 33.3056 15.2222C33.4742 15.0976 36.5349 13.4644 35.7222 13C34.3324 12.2058 33.6462 10.0681 32.5 8.94444C27.0086 3.56075 16.8397 3.01278 9.61111 2.63889C5.00818 2.40081 2 1.83914 2 6.75C2 10.438 4.41725 12.2517 5.5 15.5" stroke="black" stroke-width="3" stroke-linecap="round"/>
</svg>
