<svg width="1054" height="206" viewBox="0 0 1054 206" fill="none" xmlns="http://www.w3.org/2000/svg" >
<line  class="line line2" x1="250.664" y1="2.99976" x2="892.664" y2="2.99976" stroke="#0561F5" stroke-width="4"/>
<path class="line line3" d="M1048.67 205.25C1049.76 205.384 1050.76 204.605 1050.89 203.508L1053.09 185.643C1053.22 184.546 1052.44 183.548 1051.35 183.414C1050.25 183.279 1049.25 184.059 1049.12 185.155L1047.17 201.036L1031.29 199.086C1030.19 198.951 1029.19 199.731 1029.06 200.827C1028.92 201.924 1029.7 202.922 1030.8 203.056L1048.67 205.25ZM890.088 3.23108L1047.33 204.496L1050.49 202.033L893.24 0.768433L890.088 3.23108Z" fill="#0561F5"/>
<line class="line" x1="1.38741" y1="119.236" x2="251.819" y2="2.45794" stroke="#0561F5" stroke-width="4"/>
</svg>
