<svg width="89" height="127" viewBox="0 0 89 127" fill="none" xmlns="http://www.w3.org/2000/svg">
<path d="M57.6529 39.1647C57.6529 40.274 56.6621 41.1731 55.4398 41.1731C54.2175 41.1731 53.2276 40.2739 53.2276 39.1647C53.2276 38.0564 54.2175 37.1572 55.4398 37.1572C56.6621 37.1572 57.6529 38.0564 57.6529 39.1647Z" fill="black"/>
<path d="M35.5253 39.1647C35.5253 40.274 34.5344 41.1731 33.3131 41.1731C32.0908 41.1731 31.1 40.2739 31.1 39.1647C31.1 38.0564 32.0909 37.1572 33.3131 37.1572C34.5344 37.1572 35.5253 38.0564 35.5253 39.1647Z" fill="black"/>
<path d="M53.3813 29.6346C53.4114 29.6293 56.2995 29.2004 58.2977 30.4791C58.4912 30.6026 58.7138 30.6626 58.9336 30.6626C59.2807 30.6626 59.624 30.5153 59.8389 30.2373C60.1909 29.7846 60.0713 29.1581 59.5725 28.8378C56.8108 27.0712 53.1538 27.6324 52.9992 27.6571C52.3992 27.7533 51.9986 28.2713 52.1026 28.8166C52.2086 29.3611 52.7804 29.7308 53.3813 29.6346H53.3813Z" fill="black"/>
<path d="M29.5585 30.6621C29.7783 30.6621 30.0009 30.6021 30.1945 30.4785C32.1791 29.2096 35.0429 29.6243 35.1099 29.634C35.7098 29.724 36.2835 29.3649 36.3895 28.8187C36.4955 28.2724 36.0939 27.7518 35.492 27.6556C35.3374 27.6309 31.6804 27.0697 28.9187 28.8363C28.4199 29.1558 28.2993 29.7823 28.6523 30.2359C28.8691 30.5138 29.2114 30.6621 29.5585 30.6621H29.5585Z" fill="black"/>
<path d="M47.8674 48.7322C48.4557 48.5812 48.797 48.026 48.6297 47.4929C48.4635 46.9597 47.8509 46.6473 47.2645 46.8009C45.2585 47.3172 43.2348 47.3172 41.2289 46.8009C40.6425 46.6482 40.0299 46.9597 39.8637 47.4929C39.6964 48.026 40.0387 48.5812 40.626 48.7322C41.8259 49.042 43.0434 49.1973 44.2462 49.1973C45.45 49.1973 46.6694 49.042 47.8674 48.7322H47.8674Z" fill="black"/>
<path d="M51.9897 75.8739V68.9875C59.2224 66.5909 64.9234 61.3731 67.3204 57.7453C68.1061 56.5567 68.8149 55.4793 69.4431 54.3744C72.5498 54.348 75.3756 52.2072 76.7886 48.7199C78.4329 44.6634 76.0204 40.5735 72.6043 38.9542C72.6053 38.7927 72.6101 38.6418 72.6101 38.4777C75.501 31.5701 74.6803 19.4507 68.2588 10.8839C64.5385 5.9186 57.3516 0 44.2436 0C40.9365 0 37.8082 0.392683 34.9437 1.16657C34.9369 1.16834 34.933 1.17275 34.9262 1.17452C34.9194 1.17628 34.9126 1.17452 34.9068 1.17628C26.8135 3.65848 19.8327 0.165895 19.7618 0.130609C19.4312 -0.0379335 19.0276 -0.0432286 18.6941 0.120902C18.3596 0.283268 18.1408 0.589466 18.1136 0.932745C17.9103 3.53851 19.4059 6.07651 22.2802 8.14666C21.0307 8.32756 19.7461 8.41316 19.1511 8.43521C18.7933 8.44844 18.4636 8.61699 18.2682 8.88789C18.0727 9.15879 18.0329 9.4994 18.1632 9.80297C18.1826 9.84885 18.6095 10.8292 19.4584 12.1704C13.6951 20.7926 13.028 32.2112 15.7575 38.585C15.7575 38.6838 15.7604 38.773 15.7604 38.87C12.3861 40.4857 10.032 44.605 11.6998 48.7222C13.1108 52.2034 15.926 54.3415 19.0199 54.3652C19.617 55.3942 20.284 56.4098 21.0211 57.5227L21.1689 57.7477C23.5678 61.3754 29.2679 66.5931 36.4996 68.9899V75.8762C24.5673 79.5347 4.76083 90.799 0.00125036 125.376C-0.00458386 125.412 0.0119466 125.446 0.0109743 125.482C0.0100019 125.562 0.0138914 125.636 0.0333392 125.714C0.0479249 125.771 0.0663996 125.823 0.0907103 125.877C0.1228 125.948 0.163643 126.013 0.213235 126.075C0.2356 126.104 0.243377 126.139 0.268661 126.165C0.290054 126.187 0.322142 126.196 0.343535 126.216C0.368817 126.238 0.383402 126.268 0.412571 126.289C0.46119 126.323 0.516617 126.34 0.568154 126.367C0.608023 126.387 0.643028 126.41 0.686785 126.425C0.820004 126.473 0.958073 126.505 1.09713 126.505H87.3943C87.5334 126.505 87.6695 126.474 87.8027 126.426C87.8446 126.411 87.8796 126.39 87.9185 126.369C87.968 126.345 88.0206 126.33 88.0663 126.298C88.0983 126.276 88.1129 126.244 88.1411 126.219C88.1654 126.198 88.1995 126.188 88.2218 126.165C88.2461 126.141 88.253 126.108 88.2734 126.081C88.3239 126.016 88.3638 125.952 88.3969 125.879C88.4212 125.827 88.4426 125.775 88.4562 125.719C88.4756 125.64 88.4795 125.565 88.4785 125.485C88.4785 125.448 88.4941 125.413 88.4892 125.376C83.7314 90.7992 63.9256 79.5336 51.9909 75.874L51.9897 75.8739ZM57.7783 83.0268L55.1237 81.5099L55.8919 79.4742C62.5334 82.3359 70.4283 87.6233 76.6476 97.3883H49.1356L50.9151 92.6718L52.5059 93.8507C52.7121 94.0025 52.9581 94.0775 53.2051 94.0775C53.526 94.0775 53.8449 93.9522 54.0627 93.7086C54.4488 93.278 54.3778 92.6453 53.9042 92.2959L51.6784 90.6466L52.4981 88.4732L54.6831 89.6327C54.8591 89.7262 55.0516 89.7703 55.2403 89.7703C55.6205 89.7703 55.99 89.593 56.1961 89.2736C56.5044 88.7944 56.3264 88.1802 55.8004 87.9005L53.2304 86.5363L54.3885 83.4636L56.6017 84.7272C56.7854 84.8313 56.9887 84.8807 57.19 84.8807C57.5575 84.8807 57.9173 84.7148 58.1273 84.4122C58.4521 83.9419 58.2975 83.3224 57.7792 83.0268L57.7783 83.0268ZM72.5547 41.3165C74.5286 42.7636 75.7607 45.4428 74.7134 48.0291C73.8198 50.2369 72.2698 51.7459 70.5311 52.2128C71.659 49.6149 72.364 46.4505 72.5546 41.3167L72.5547 41.3165ZM13.7769 48.0291C12.7111 45.4003 13.8868 42.7028 15.8101 41.2469C15.9998 46.4189 16.7242 49.5743 17.8911 52.1864C16.1845 51.7054 14.6607 50.2115 13.777 48.0293L13.7769 48.0291ZM23.066 56.7123L22.9163 56.4873C19.7394 51.6851 17.9852 49.0237 17.9687 38.5476C20.8275 30.063 24.7093 23.9928 29.8184 20.0088C33.2723 20.9918 38.9375 21.8548 44.4237 21.8548C49.7621 21.8548 54.8963 21.0333 57.583 18.7186C63.8598 24.6504 68.0703 31.1202 70.398 38.4726C70.3796 49.2056 68.6156 51.8836 65.4244 56.7122C62.4673 61.1835 54.1057 68.2739 44.2447 68.2739C34.3838 68.2739 26.0222 61.1835 23.0661 56.7122L23.066 56.7123ZM37.9417 77.5562C38.4123 77.4203 38.6972 77.0249 38.6972 76.5996H38.7128V69.6091C40.4893 70.0318 42.3397 70.2824 44.2448 70.2824C46.1499 70.2824 48.0002 70.0327 49.7768 69.6091V76.5996H49.7924C49.7924 77.0249 50.0783 77.4211 50.5479 77.5562C51.5884 77.8562 52.6989 78.2189 53.8627 78.6548L52.2709 82.8755C46.8713 86.5367 41.6164 86.5358 36.2303 82.8755L34.6297 78.6548C35.7907 78.2171 36.9022 77.8562 37.9417 77.5562H37.9417ZM32.6004 79.4746L33.1206 80.845L30.5563 82.5198C30.0604 82.8428 29.9476 83.4702 30.3045 83.9211C30.5194 84.192 30.8578 84.3376 31.202 84.3376C31.4257 84.3376 31.6513 84.275 31.8467 84.1488L33.8712 82.8278L34.8329 85.3622L32.5351 87.1023C32.0664 87.4579 32.0032 88.0906 32.3951 88.5159C32.6139 88.7542 32.928 88.876 33.246 88.876C33.4959 88.876 33.7467 88.8001 33.9539 88.643L35.605 87.3926L36.6182 90.0628L34.3788 92.3068C33.9685 92.7171 34.0035 93.3516 34.4566 93.7248C34.6676 93.8987 34.935 93.9851 35.1985 93.9851C35.499 93.9851 35.8004 93.8748 36.0192 93.6551L37.4409 92.2318L39.3963 97.3895H11.8446C18.0649 87.6229 25.9597 82.3362 32.6012 79.4745L32.6004 79.4746ZM9.31053 101.818L11.1299 116.153C8.36151 117.328 5.63197 119.287 2.74311 122.187C4.16865 114.044 6.47809 107.336 9.31069 101.818H9.31053ZM3.4345 124.498C6.2417 121.512 8.82736 119.487 11.3953 118.259L12.1878 124.498H3.4345ZM14.4146 124.498L11.23 99.3981H77.2692L74.2974 124.498H14.4146ZM76.5231 124.498L77.0998 119.633C79.8963 120.375 82.5519 122.006 85.0267 124.498H76.5231ZM77.337 117.619L79.2021 101.864C82.0357 107.397 84.342 114.122 85.7647 122.284C83.1499 119.893 80.327 118.335 77.3371 117.619L77.337 117.619Z" fill="black"/>
<path d="M44.2429 107.513C40.9329 107.513 38.2415 109.957 38.2415 112.961C38.2415 115.964 40.9339 118.407 44.2429 118.407C47.552 118.407 50.2444 115.964 50.2444 112.961C50.2444 109.957 47.552 107.513 44.2429 107.513V107.513Z" fill="black"/>
<path d="M40.4965 44.2612V39.2959C42.6173 38.2563 45.9924 38.2634 48.2405 39.3117V44.2612C48.2405 44.8163 48.7364 45.2654 49.3471 45.2654H61.1646C61.7753 45.2654 62.2712 44.8163 62.2712 44.2612V34.0507C62.2712 33.4957 61.7753 33.0465 61.1646 33.0465H49.3471C48.7364 33.0465 48.2405 33.4957 48.2405 34.0507V37.125C45.8163 36.3167 42.8534 36.3105 40.4965 37.103V34.0506C40.4965 33.4955 40.0006 33.0464 39.3899 33.0464H27.5734C26.9627 33.0464 26.4668 33.4955 26.4668 34.0506V44.2611C26.4668 44.8161 26.9627 45.2653 27.5734 45.2653H39.3909C40.0006 45.2653 40.4965 44.8161 40.4965 44.2611L40.4965 44.2612ZM50.4538 35.0548H60.0581V43.2577H50.4538V35.0548ZM38.2842 43.257H28.6799V35.0541H38.2842V43.257Z" fill="black"/>
</svg>
