<svg width="933" height="185" viewBox="0 0 933 185" fill="none" xmlns="http://www.w3.org/2000/svg">
<line x1="275" y1="118" x2="917" y2="118" stroke="#0561F5" stroke-width="4"/>
<line x1="277" y1="120" x2="277" y2="4" stroke="#0561F5" stroke-width="4"/>
<path d="M916.586 184.414C917.367 185.195 918.633 185.195 919.414 184.414L932.142 171.686C932.923 170.905 932.923 169.639 932.142 168.858C931.361 168.077 930.095 168.077 929.314 168.858L918 180.172L906.686 168.858C905.905 168.077 904.639 168.077 903.858 168.858C903.077 169.639 903.077 170.905 903.858 171.686L916.586 184.414ZM916 116L916 183L920 183L920 116L916 116Z" fill="#0561F5"/>
<line y1="2" x2="279" y2="2" stroke="#0561F5" stroke-width="4"/>
</svg>
